<?xml version="1.0" encoding="UTF-8"?>
<svg xmlns="http://www.w3.org/2000/svg" width="189" height="52" viewBox="0 0 189 52" fill="none">
  <path d="M17.13 49.89L1.93 49.82C1.42 49.82 1 49.4 1 48.89C1 48.38 1.42 47.96 1.93 47.96L17.12 48.03C25.61 48.03 32.52 41.1 32.52 32.59C32.52 24.08 25.61 17.15 17.12 17.15L1.93 17.07C1.42 17.07 1 16.65 1 16.14V1.92999C1 1.41999 1.42 1 1.93 1C2.44 1 2.86 1.41999 2.86 1.92999V15.2L17.12 15.27C26.64 15.27 34.39 23.04 34.39 32.58C34.39 42.12 26.65 49.89 17.13 49.89Z" fill="white" stroke="white" stroke-width="0.6"></path>
  <path d="M17.0184 45.34L1.93 45.27C1.42 45.27 1 44.85 1 44.34C1 43.83 1.42 43.41 1.93 43.41L16.9884 43.48C22.9684 43.48 27.8284 38.6 27.8284 32.59C27.8284 26.58 23.0084 21.7 17.0084 21.7L6.0984 21.72C5.8684 21.72 5.6084 21.63 5.4484 21.44C5.2884 21.25 5.1684 21.02 5.1684 20.79V1.92999C5.1684 1.41999 5.5884 1 6.0984 1C6.6084 1 7.0284 1.41999 7.0284 1.92999V19.84L17.0084 19.82C24.0384 19.82 29.738 25.53 29.738 32.58C29.748 39.62 24.0484 45.34 17.0184 45.34Z" fill="#29BA74" stroke="#29BA74" stroke-width="0.6"></path>
  <path d="M16.9293 41H1.93C1.42 41 1 40.58 1 40.07C1 39.56 1.42 39.14 1.93 39.14H16.9293C20.5393 39.14 23.4693 36.2 23.4693 32.59C23.4693 28.98 20.5393 26.04 16.9293 26.04H10.4093C9.8993 26.04 9.4793 25.62 9.4793 25.11V1.92999C9.4793 1.41999 9.8993 1 10.4093 1C10.9193 1 11.3393 1.41999 11.3393 1.92999V24.16H16.9193C21.5493 24.16 25.3193 27.94 25.3193 32.58C25.3193 37.22 21.5593 41 16.9293 41Z" fill="white" stroke="white" stroke-width="0.6"></path>
  <path d="M58.166 19.3172C59.481 20.0032 60.51 20.9462 61.254 22.1472C61.997 23.3482 62.369 24.7342 62.369 26.3062C62.369 28.7652 61.497 30.8092 59.753 32.4382C58.009 34.0672 55.879 34.8822 53.364 34.8822H40.5V4.86621H52.421C54.879 4.86621 56.951 5.66719 58.638 7.26819C60.353 8.84019 61.211 10.8122 61.211 13.1852C61.211 15.7862 60.196 17.8302 58.166 19.3172ZM52.421 9.49719H45.431V17.3872H52.421C53.507 17.3872 54.422 17.0162 55.165 16.2722C55.908 15.5012 56.28 14.5572 56.28 13.4422C56.28 12.3272 55.908 11.3982 55.165 10.6552C54.422 9.88321 53.507 9.49719 52.421 9.49719ZM53.364 30.2512C54.507 30.2512 55.465 29.8512 56.237 29.0502C57.037 28.2212 57.437 27.2212 57.437 26.0492C57.437 24.8772 57.037 23.8912 56.237 23.0902C55.465 22.2612 54.507 21.8472 53.364 21.8472H45.431V30.2512H53.364Z" fill="#29BA74"></path>
  <path d="M65.085 34.8821V3.58008H69.716V34.8821H65.085Z" fill="#29BA74"></path>
  <path d="M83.9264 35.44C80.7824 35.44 78.1094 34.353 75.9084 32.181C73.7074 30.008 72.6064 27.335 72.6064 24.162C72.6064 20.989 73.7074 18.316 75.9084 16.144C78.1094 13.971 80.7824 12.885 83.9264 12.885C87.0994 12.885 89.7724 13.971 91.9454 16.144C94.1465 18.316 95.2474 20.989 95.2474 24.162C95.2474 27.335 94.1465 30.008 91.9454 32.181C89.7724 34.353 87.0994 35.44 83.9264 35.44ZM79.1674 29.008C80.4535 30.294 82.0404 30.937 83.9264 30.937C85.8134 30.937 87.4004 30.294 88.6864 29.008C89.9724 27.721 90.6164 26.106 90.6164 24.162C90.6164 22.218 89.9724 20.603 88.6864 19.317C87.4004 18.03 85.8134 17.387 83.9264 17.387C82.0404 17.387 80.4535 18.03 79.1674 19.317C77.8805 20.603 77.2374 22.218 77.2374 24.162C77.2374 26.106 77.8805 27.721 79.1674 29.008Z" fill="#29BA74"></path>
  <path d="M108.267 35.44C105.123 35.44 102.45 34.353 100.249 32.181C98.0483 30.008 96.9473 27.335 96.9473 24.162C96.9473 20.989 98.0483 18.316 100.249 16.144C102.45 13.971 105.123 12.885 108.267 12.885C111.44 12.885 114.113 13.971 116.286 16.144C118.487 18.316 119.587 20.989 119.587 24.162C119.587 27.335 118.487 30.008 116.286 32.181C114.113 34.353 111.44 35.44 108.267 35.44ZM103.508 29.008C104.794 30.294 106.381 30.937 108.267 30.937C110.154 30.937 111.74 30.294 113.027 29.008C114.313 27.721 114.956 26.106 114.956 24.162C114.956 22.218 114.313 20.603 113.027 19.317C111.74 18.03 110.154 17.387 108.267 17.387C106.381 17.387 104.794 18.03 103.508 19.317C102.221 20.603 101.578 22.218 101.578 24.162C101.578 26.106 102.221 27.721 103.508 29.008Z" fill="#29BA74"></path>
  <path d="M145.901 12.885C148.331 12.885 150.289 13.671 151.775 15.243C153.262 16.816 154.005 18.931 154.005 21.589V34.882H149.374V21.89C149.374 20.403 149.002 19.26 148.259 18.459C147.516 17.63 146.501 17.216 145.215 17.216C143.785 17.216 142.642 17.687 141.784 18.631C140.955 19.574 140.541 20.989 140.541 22.876V34.882H135.91V21.89C135.91 20.403 135.553 19.26 134.838 18.459C134.152 17.63 133.166 17.216 131.879 17.216C130.478 17.216 129.335 17.702 128.449 18.674C127.563 19.617 127.12 21.018 127.12 22.876V34.882H122.489V13.442H127.12V16.015C128.492 13.928 130.536 12.885 133.251 12.885C135.996 12.885 138.025 14.014 139.34 16.272C140.77 14.014 142.956 12.885 145.901 12.885Z" fill="#29BA74"></path>
  <path d="M174.655 13.442H179.286V34.882H174.655V31.795C172.911 34.225 170.41 35.44 167.151 35.44C164.207 35.44 161.691 34.353 159.605 32.181C157.518 29.98 156.474 27.307 156.474 24.162C156.474 20.989 157.518 18.316 159.605 16.144C161.691 13.971 164.207 12.885 167.151 12.885C170.41 12.885 172.911 14.086 174.655 16.487V13.442ZM163.035 29.093C164.321 30.38 165.936 31.023 167.88 31.023C169.824 31.023 171.439 30.38 172.726 29.093C174.012 27.778 174.655 26.135 174.655 24.162C174.655 22.19 174.012 20.56 172.726 19.274C171.439 17.959 169.824 17.301 167.88 17.301C165.936 17.301 164.321 17.959 163.035 19.274C161.748 20.56 161.105 22.19 161.105 24.162C161.105 26.135 161.748 27.778 163.035 29.093Z" fill="#29BA74"></path>
  <path d="M183.398 34.8821V13.4421H188.029V34.8821H183.398Z" fill="#29BA74"></path>
  <path d="M174.533 13.442H179.164V34.882H174.533V31.795C172.789 34.224 170.287 35.439 167.029 35.439C164.084 35.439 161.569 34.353 159.482 32.181C157.395 29.979 156.352 27.307 156.352 24.162C156.352 20.989 157.395 18.316 159.482 16.144C161.569 13.971 164.084 12.885 167.029 12.885C170.287 12.885 172.789 14.085 174.533 16.487V13.442ZM162.912 29.093C164.199 30.38 165.814 31.023 167.758 31.023C169.701 31.023 171.317 30.38 172.603 29.093C173.889 27.778 174.533 26.134 174.533 24.162C174.533 22.19 173.889 20.56 172.603 19.274C171.317 17.959 169.701 17.301 167.758 17.301C165.814 17.301 164.199 17.959 162.912 19.274C161.626 20.56 160.983 22.19 160.983 24.162C160.983 26.134 161.626 27.778 162.912 29.093Z" fill="white"></path>
  <path d="M183.275 34.8821V13.4421H187.906V34.8821H183.275Z" fill="white"></path>
  <path d="M46.5209 43.4221C47.1069 43.4221 47.5789 43.6041 47.9359 43.9691C48.2939 44.3331 48.4719 44.8441 48.4719 45.5011V48.9001H47.9359V45.5011C47.9359 45.0011 47.8039 44.6151 47.5399 44.3441C47.2819 44.0721 46.9389 43.9361 46.5109 43.9361C46.0319 43.9361 45.6419 44.1011 45.3419 44.4291C45.0489 44.7581 44.9029 45.2511 44.9029 45.9091V48.9001H44.3669V45.5011C44.3669 45.0011 44.2419 44.6151 43.9909 44.3441C43.7479 44.0721 43.4159 43.9361 42.9939 43.9361C42.5229 43.9361 42.1259 44.1041 41.8049 44.4401C41.4899 44.7691 41.3329 45.2581 41.3329 45.9091V48.9001H40.7969V43.5401H41.3329V44.4621C41.7039 43.7681 42.2799 43.4221 43.0589 43.4221C43.4519 43.4221 43.7949 43.5181 44.0879 43.7111C44.3809 43.8971 44.5949 44.1651 44.7309 44.5151C44.9169 44.1511 45.1669 43.8791 45.4809 43.7011C45.8029 43.5151 46.1499 43.4221 46.5209 43.4221Z" fill="white"></path>
  <path d="M52.1218 49.0181C51.3348 49.0181 50.6668 48.7501 50.1168 48.2141C49.5738 47.6701 49.3018 47.0061 49.3018 46.2201C49.3018 45.4341 49.5738 44.7731 50.1168 44.2371C50.6668 43.6931 51.3348 43.4221 52.1218 43.4221C52.9008 43.4221 53.5618 43.6931 54.1048 44.2371C54.6548 44.7731 54.9298 45.4341 54.9298 46.2201C54.9298 47.0061 54.6548 47.6701 54.1048 48.2141C53.5618 48.7501 52.9008 49.0181 52.1218 49.0181ZM50.5028 47.8381C50.9458 48.2811 51.4858 48.5031 52.1218 48.5031C52.7578 48.5031 53.2938 48.2811 53.7298 47.8381C54.1658 47.3951 54.3838 46.8561 54.3838 46.2201C54.3838 45.5841 54.1658 45.0441 53.7298 44.6011C53.2938 44.1581 52.7578 43.9361 52.1218 43.9361C51.4858 43.9361 50.9458 44.1581 50.5028 44.6011C50.0668 45.0441 49.8488 45.5841 49.8488 46.2201C49.8488 46.8561 50.0668 47.3951 50.5028 47.8381Z" fill="white"></path>
  <path d="M60.6259 41.396H61.1619V48.9H60.6259V47.656C60.4039 48.078 60.0899 48.41 59.6829 48.653C59.2819 48.896 58.8289 49.018 58.3209 49.018C57.5489 49.018 56.8919 48.75 56.3489 48.214C55.8129 47.67 55.5449 47.006 55.5449 46.22C55.5449 45.434 55.8129 44.773 56.3489 44.237C56.8919 43.693 57.5489 43.422 58.3209 43.422C58.8289 43.422 59.2819 43.543 59.6829 43.786C60.0899 44.029 60.4039 44.362 60.6259 44.783V41.396ZM56.7349 47.838C57.1779 48.281 57.7169 48.503 58.3529 48.503C58.9889 48.503 59.5249 48.281 59.9609 47.838C60.4039 47.395 60.6259 46.856 60.6259 46.22C60.6259 45.584 60.4039 45.044 59.9609 44.601C59.5249 44.158 58.9889 43.936 58.3529 43.936C57.7169 43.936 57.1779 44.158 56.7349 44.601C56.2989 45.044 56.0809 45.584 56.0809 46.22C56.0809 46.856 56.2989 47.395 56.7349 47.838Z" fill="white"></path>
  <path d="M64.8981 43.4221C65.6841 43.4221 66.3201 43.7011 66.8061 44.2581C67.2991 44.8151 67.5461 45.4761 67.5461 46.2411C67.5461 46.2701 67.5421 46.3131 67.5351 46.3701C67.5351 46.4271 67.5351 46.4701 67.5351 46.4981H62.6791C62.7441 47.0991 62.9831 47.5851 63.3971 47.9561C63.8191 48.3211 64.3371 48.5031 64.9521 48.5031C65.3811 48.5031 65.7561 48.4141 66.0771 48.2351C66.3991 48.0561 66.6421 47.8211 66.8061 47.5281L67.2781 47.8061C67.0571 48.1781 66.7421 48.4741 66.3351 48.6961C65.9271 48.9101 65.4631 49.0181 64.9411 49.0181C64.1191 49.0181 63.4441 48.7571 62.9151 48.2351C62.3861 47.7061 62.1221 47.0341 62.1221 46.2201C62.1221 45.4191 62.3791 44.7551 62.8941 44.2261C63.4151 43.6901 64.0841 43.4221 64.8981 43.4221ZM64.8981 43.9361C64.2911 43.9361 63.7831 44.1261 63.3761 44.5051C62.9691 44.8831 62.7361 45.3731 62.6791 45.9731H66.9891C66.9311 45.3371 66.7031 44.8401 66.3031 44.4831C65.9091 44.1191 65.4411 43.9361 64.8981 43.9361Z" fill="white"></path>
  <path d="M69.0126 44.5901C69.3346 43.8401 69.9316 43.4651 70.8026 43.4651V43.9791C70.2956 43.9791 69.8706 44.1441 69.5276 44.4721C69.1846 44.7941 69.0126 45.2761 69.0126 45.9201V48.9001H68.4766V43.5401H69.0126V44.5901Z" fill="white"></path>
  <path d="M74.0234 43.4221C74.6594 43.4221 75.1634 43.6181 75.5354 44.0111C75.9144 44.3971 76.1034 44.9151 76.1034 45.5661V48.9001H75.5564V45.5661C75.5564 45.0661 75.4174 44.6691 75.1384 44.3761C74.8674 44.0831 74.4814 43.9361 73.9804 43.9361C73.4304 43.9361 72.9804 44.1191 72.6304 44.4831C72.2804 44.8481 72.1044 45.3761 72.1044 46.0701V48.9001H71.5684V43.5401H72.1044V44.5581C72.4904 43.8011 73.1304 43.4221 74.0234 43.4221Z" fill="white"></path>
  <path d="M80.4018 42.125C80.3158 42.203 80.2159 42.243 80.1019 42.243C79.9879 42.243 79.8878 42.203 79.8018 42.125C79.7158 42.039 79.6729 41.935 79.6729 41.814C79.6729 41.699 79.7158 41.603 79.8018 41.524C79.8878 41.439 79.9879 41.396 80.1019 41.396C80.2159 41.396 80.3158 41.439 80.4018 41.524C80.4878 41.603 80.5309 41.699 80.5309 41.814C80.5309 41.935 80.4878 42.039 80.4018 42.125ZM79.8338 48.9V43.54H80.3698V48.9H79.8338Z" fill="white"></path>
  <path d="M84.1552 43.4221C84.7912 43.4221 85.2952 43.6181 85.6672 44.0111C86.0462 44.3971 86.2352 44.9151 86.2352 45.5661V48.9001H85.6882V45.5661C85.6882 45.0661 85.5492 44.6691 85.2702 44.3761C84.9992 44.0831 84.6132 43.9361 84.1122 43.9361C83.5622 43.9361 83.1122 44.1191 82.7622 44.4831C82.4122 44.8481 82.2362 45.3761 82.2362 46.0701V48.9001H81.7002V43.5401H82.2362V44.5581C82.6222 43.8011 83.2622 43.4221 84.1552 43.4221Z" fill="white"></path>
  <path d="M90.1736 44.065H88.5766V47.549C88.5766 47.856 88.6336 48.0781 88.7476 48.2141C88.8626 48.3491 89.0376 48.428 89.2736 48.449C89.5086 48.464 89.8096 48.4531 90.1736 48.4171V48.9001C89.4516 49.0071 88.9126 48.9571 88.5546 48.7501C88.2046 48.5421 88.0296 48.142 88.0296 47.549V44.065H86.8506V43.54H88.0296V42.2L88.5766 42.0391V43.54H90.1736V44.065Z" fill="white"></path>
  <path d="M93.2262 43.4221C94.0122 43.4221 94.6482 43.7011 95.1342 44.2581C95.6272 44.8151 95.8742 45.4761 95.8742 46.2411C95.8742 46.2701 95.8702 46.3131 95.8632 46.3701C95.8632 46.4271 95.8632 46.4701 95.8632 46.4981H91.0072C91.0712 47.0991 91.3112 47.5851 91.7252 47.9561C92.1472 48.3211 92.6652 48.5031 93.2802 48.5031C93.7082 48.5031 94.0842 48.4141 94.4052 48.2351C94.7272 48.0561 94.9702 47.8211 95.1342 47.5281L95.6062 47.8061C95.3842 48.1781 95.0702 48.4741 94.6622 48.6961C94.2552 48.9101 93.7912 49.0181 93.2692 49.0181C92.4472 49.0181 91.7722 48.7571 91.2432 48.2351C90.7142 47.7061 90.4502 47.0341 90.4502 46.2201C90.4502 45.4191 90.7072 44.7551 91.2212 44.2261C91.7432 43.6901 92.4112 43.4221 93.2262 43.4221ZM93.2262 43.9361C92.6192 43.9361 92.1112 44.1261 91.7042 44.5051C91.2962 44.8831 91.0642 45.3731 91.0072 45.9731H95.3162C95.2592 45.3371 95.0312 44.8401 94.6302 44.4831C94.2372 44.1191 93.7692 43.9361 93.2262 43.9361Z" fill="white"></path>
  <path d="M96.8047 48.9V41.074H97.3407V48.9H96.8047Z" fill="white"></path>
  <path d="M98.6709 48.9V41.074H99.2069V48.9H98.6709Z" fill="white"></path>
  <path d="M101.106 42.125C101.02 42.203 100.92 42.243 100.806 42.243C100.691 42.243 100.591 42.203 100.506 42.125C100.42 42.039 100.377 41.935 100.377 41.814C100.377 41.699 100.42 41.603 100.506 41.524C100.591 41.439 100.691 41.396 100.806 41.396C100.92 41.396 101.02 41.439 101.106 41.524C101.192 41.603 101.235 41.699 101.235 41.814C101.235 41.935 101.192 42.039 101.106 42.125ZM100.538 48.9V43.54H101.074V48.9H100.538Z" fill="white"></path>
  <path d="M107.164 43.5401H107.7V48.6421C107.7 49.4211 107.446 50.0361 106.939 50.4861C106.431 50.9361 105.795 51.1621 105.03 51.1621C104.416 51.1621 103.891 51.0471 103.455 50.8191C103.019 50.5901 102.701 50.2751 102.501 49.8751L102.972 49.6071C103.315 50.3001 104.001 50.6471 105.03 50.6471C105.695 50.6471 106.217 50.4651 106.596 50.1001C106.974 49.7431 107.164 49.2571 107.164 48.6421V47.6561C106.942 48.0781 106.628 48.4101 106.22 48.6531C105.82 48.8961 105.366 49.0181 104.859 49.0181C104.087 49.0181 103.43 48.7501 102.886 48.2141C102.35 47.6701 102.082 47.0061 102.082 46.2201C102.082 45.4341 102.35 44.7731 102.886 44.2371C103.43 43.6931 104.087 43.4221 104.859 43.4221C105.366 43.4221 105.82 43.5431 106.22 43.7861C106.628 44.0291 106.942 44.3621 107.164 44.7831V43.5401ZM103.272 47.8381C103.715 48.2811 104.255 48.5031 104.891 48.5031C105.527 48.5031 106.063 48.2811 106.499 47.8381C106.942 47.3951 107.164 46.8561 107.164 46.2201C107.164 45.5841 106.942 45.0441 106.499 44.6011C106.063 44.1581 105.527 43.9361 104.891 43.9361C104.255 43.9361 103.715 44.1581 103.272 44.6011C102.836 45.0441 102.618 45.5841 102.618 46.2201C102.618 46.8561 102.836 47.3951 103.272 47.8381Z" fill="white"></path>
  <path d="M111.446 43.4221C112.232 43.4221 112.868 43.7011 113.354 44.2581C113.847 44.8151 114.093 45.4761 114.093 46.2411C114.093 46.2701 114.09 46.3131 114.083 46.3701C114.083 46.4271 114.083 46.4701 114.083 46.4981H109.227C109.291 47.0991 109.53 47.5851 109.945 47.9561C110.367 48.3211 110.885 48.5031 111.499 48.5031C111.928 48.5031 112.303 48.4141 112.625 48.2351C112.946 48.0561 113.189 47.8211 113.354 47.5281L113.825 47.8061C113.604 48.1781 113.289 48.4741 112.882 48.6961C112.475 48.9101 112.01 49.0181 111.489 49.0181C110.667 49.0181 109.991 48.7571 109.462 48.2351C108.934 47.7061 108.669 47.0341 108.669 46.2201C108.669 45.4191 108.926 44.7551 109.441 44.2261C109.963 43.6901 110.631 43.4221 111.446 43.4221ZM111.446 43.9361C110.838 43.9361 110.331 44.1261 109.923 44.5051C109.516 44.8831 109.284 45.3731 109.227 45.9731H113.536C113.479 45.3371 113.25 44.8401 112.85 44.4831C112.457 44.1191 111.989 43.9361 111.446 43.9361Z" fill="white"></path>
  <path d="M117.48 43.4221C118.116 43.4221 118.619 43.6181 118.991 44.0111C119.37 44.3971 119.559 44.9151 119.559 45.5661V48.9001H119.012V45.5661C119.012 45.0661 118.873 44.6691 118.594 44.3761C118.323 44.0831 117.937 43.9361 117.437 43.9361C116.886 43.9361 116.436 44.1191 116.086 44.4831C115.736 44.8481 115.561 45.3761 115.561 46.0701V48.9001H115.025V43.5401H115.561V44.5581C115.947 43.8011 116.586 43.4221 117.48 43.4221Z" fill="white"></path>
  <path d="M123.209 49.0181C122.401 49.0181 121.729 48.7501 121.193 48.2141C120.657 47.6781 120.389 47.0131 120.389 46.2201C120.389 45.4261 120.657 44.7621 121.193 44.2261C121.729 43.6901 122.401 43.4221 123.209 43.4221C123.731 43.4221 124.202 43.5471 124.624 43.7971C125.046 44.0401 125.353 44.3721 125.546 44.7941L125.106 45.0511C124.949 44.7081 124.699 44.4371 124.356 44.2371C124.02 44.0361 123.638 43.9361 123.209 43.9361C122.566 43.9361 122.026 44.1581 121.59 44.6011C121.154 45.0371 120.936 45.5771 120.936 46.2201C120.936 46.8631 121.154 47.4061 121.59 47.8491C122.026 48.2851 122.566 48.5031 123.209 48.5031C123.638 48.5031 124.02 48.4031 124.356 48.2031C124.699 48.0031 124.96 47.7311 125.138 47.3881L125.589 47.6561C125.374 48.0711 125.053 48.4031 124.624 48.6531C124.202 48.8961 123.731 49.0181 123.209 49.0181Z" fill="white"></path>
  <path d="M128.801 43.4221C129.587 43.4221 130.223 43.7011 130.709 44.2581C131.202 44.8151 131.449 45.4761 131.449 46.2411C131.449 46.2701 131.445 46.3131 131.438 46.3701C131.438 46.4271 131.438 46.4701 131.438 46.4981H126.582C126.646 47.0991 126.886 47.5851 127.3 47.9561C127.722 48.3211 128.24 48.5031 128.855 48.5031C129.283 48.5031 129.659 48.4141 129.98 48.2351C130.302 48.0561 130.545 47.8211 130.709 47.5281L131.181 47.8061C130.959 48.1781 130.645 48.4741 130.237 48.6961C129.83 48.9101 129.366 49.0181 128.844 49.0181C128.022 49.0181 127.347 48.7571 126.818 48.2351C126.289 47.7061 126.025 47.0341 126.025 46.2201C126.025 45.4191 126.282 44.7551 126.796 44.2261C127.318 43.6901 127.986 43.4221 128.801 43.4221ZM128.801 43.9361C128.194 43.9361 127.686 44.1261 127.279 44.5051C126.871 44.8831 126.639 45.3731 126.582 45.9731H130.891C130.834 45.3371 130.606 44.8401 130.205 44.4831C129.812 44.1191 129.344 43.9361 128.801 43.9361Z" fill="white"></path>
  <path d="M135.625 46.459H187.575" stroke="#29BA74" stroke-width="0.824608"></path>
  <path d="M185.5 10.5801C187.157 10.5801 188.5 9.23693 188.5 7.58008C188.5 5.92322 187.157 4.58008 185.5 4.58008C183.843 4.58008 182.5 5.92322 182.5 7.58008C182.5 9.23693 183.843 10.5801 185.5 10.5801Z" fill="white"></path>
  <path d="M185.5 10.5801C187.157 10.5801 188.5 9.23693 188.5 7.58008C188.5 5.92322 187.157 4.58008 185.5 4.58008C183.843 4.58008 182.5 5.92322 182.5 7.58008C182.5 9.23693 183.843 10.5801 185.5 10.5801Z" stroke="white"></path>
</svg>