<?xml version="1.0" encoding="UTF-8"?>
<svg xmlns="http://www.w3.org/2000/svg" width="30" height="30" viewBox="0 0 30 30" fill="none">
  <g clip-path="url(#clip0_794_1296)">
    <path d="M30 15C30 6.71573 23.2843 0 15 0C6.71573 0 0 6.71573 0 15C0 23.2843 6.71573 30 15 30C23.2843 30 30 23.2843 30 15Z" fill="#040315"></path>
    <path d="M14.7969 23.5705L9.33423 23.5454C9.15094 23.5454 9 23.3944 9 23.2111C9 23.0278 9.15094 22.8769 9.33423 22.8769L14.7934 22.9021C17.8446 22.9021 20.3279 20.4115 20.3279 17.3531C20.3279 14.2947 17.8446 11.8041 14.7934 11.8041L9.33423 11.7754C9.15094 11.7754 9 11.6244 9 11.4411V6.33423C9 6.15094 9.15094 6 9.33423 6C9.51752 6 9.66846 6.15094 9.66846 6.33423V11.1033L14.7934 11.1285C18.2147 11.1285 21 13.9209 21 17.3495C21 20.7781 18.2183 23.5705 14.7969 23.5705Z" fill="white" stroke="white" stroke-width="0.6"></path>
    <path d="M14.7568 21.9353L9.33423 21.9102C9.15094 21.9102 9 21.7592 9 21.5759C9 21.3926 9.15094 21.2417 9.33423 21.2417L14.7461 21.2668C16.8952 21.2668 18.6418 19.513 18.6418 17.3531C18.6418 15.1932 16.9096 13.4393 14.7532 13.4393L10.8323 13.4465C10.7496 13.4465 10.6562 13.4142 10.5987 13.3459C10.5412 13.2776 10.4981 13.195 10.4981 13.1123V6.33423C10.4981 6.15094 10.649 6 10.8323 6C11.0156 6 11.1665 6.15094 11.1665 6.33423V12.7709L14.7532 12.7637C17.2797 12.7637 19.3281 14.8158 19.3281 17.3495C19.3317 19.8796 17.2833 21.9353 14.7568 21.9353Z" fill="#29BA74" stroke="#29BA74" stroke-width="0.6"></path>
    <path d="M14.7248 20.3756H9.33423C9.15094 20.3756 9 20.2246 9 20.0413C9 19.858 9.15094 19.7071 9.33423 19.7071H14.7248C16.0222 19.7071 17.0752 18.6505 17.0752 17.3531C17.0752 16.0557 16.0222 14.9991 14.7248 14.9991H12.3816C12.1983 14.9991 12.0474 14.8482 12.0474 14.6649V6.33423C12.0474 6.15094 12.1983 6 12.3816 6C12.5649 6 12.7158 6.15094 12.7158 6.33423V14.3234H14.7212C16.3852 14.3234 17.7401 15.6819 17.7401 17.3495C17.7401 19.0171 16.3888 20.3756 14.7248 20.3756Z" fill="white" stroke="white" stroke-width="0.6"></path>
  </g>
  <defs>
    <clipPath id="clip0_794_1296">
      <rect width="30" height="30" fill="white"></rect>
    </clipPath>
  </defs>
</svg>